<svg height="512" viewBox="0 0 74 74" width="512" xmlns="http://www.w3.org/2000/svg"><g id="line_color" data-name="line color"><g fill="#323c6b"><path d="m4.947 20.518a.5.5 0 0 1 -.447-.728 38.176 38.176 0 0 1 7.6-10.2.5.5 0 1 1 .691.722 37.19 37.19 0 0 0 -7.4 9.936.5.5 0 0 1 -.444.27z"/><path d="m3.333 24.135a.513.513 0 0 1 -.167-.028.5.5 0 0 1 -.3-.638q.163-.458.337-.912a.5.5 0 0 1 .934.358c-.112.293-.223.589-.327.886a.5.5 0 0 1 -.477.334z"/><path d="m64.274 49.767a.5.5 0 0 1 -.252-.932q.406-.238.8-.49a.5.5 0 0 1 .537.844q-.415.263-.837.51a.5.5 0 0 1 -.248.068z"/><path d="m50.929 53.378a.5.5 0 0 1 0-1 25.831 25.831 0 0 0 10.04-2.018.5.5 0 1 1 .387.922 26.822 26.822 0 0 1 -10.427 2.096z"/></g><path d="m35.074 70.858c.992.095 1.985.142 3 .142a34.187 34.187 0 0 0 32.04-22.233 29.475 29.475 0 1 1 -37.114-45.767 34.208 34.208 0 0 0 -23.349 52.831s9.064 14.186 25.423 15.027z" fill="#eeefee"/><path d="m38.075 71.5c-1.028 0-2.022-.047-3.037-.143-16.419-.852-25.716-15.113-25.808-15.257a34.707 34.707 0 0 1 23.691-53.595.5.5 0 0 1 .379.895 28.975 28.975 0 1 0 36.488 44.988.5.5 0 0 1 .795.553 34.834 34.834 0 0 1 -32.508 22.559zm-6.883-67.67a33.71 33.71 0 0 0 -21.126 51.723c.1.148 9.131 13.988 25.033 14.806h.021c.987.094 1.954.139 2.954.139a33.848 33.848 0 0 0 30.85-20.132 29.977 29.977 0 0 1 -37.732-46.536z" fill="#323c6b"/><path d="m33 3a33.958 33.958 0 0 0 -5.61 1.336 29.467 29.467 0 0 0 19.538 51.542c.674 0 1.342-.03 2-.075a29.471 29.471 0 0 1 -15.928-52.803z" fill="#dbd8dd"/><path d="m64.365 52.635a34.148 34.148 0 0 1 -28.365 18.289c.685.045 1.373.076 2.073.076a34.187 34.187 0 0 0 32.041-22.234 29.33 29.33 0 0 1 -5.749 3.869z" fill="#dbd8dd"/><path d="m42.74 22.377 6.593 2.156-6.593 2.157-2.157 6.593-2.156-6.593-6.594-2.157 6.594-2.156 2.156-6.594z" fill="#fed19a"/><path d="m40.583 33.783a.5.5 0 0 1 -.476-.345l-2.077-6.352-6.353-2.078a.5.5 0 0 1 0-.95l6.353-2.078 2.077-6.352a.521.521 0 0 1 .951 0l2.078 6.352 6.352 2.078a.5.5 0 0 1 0 .95l-6.352 2.078-2.078 6.352a.5.5 0 0 1 -.475.345zm-7.142-9.25 5.141 1.682a.5.5 0 0 1 .32.32l1.681 5.14 1.682-5.14a.5.5 0 0 1 .32-.32l5.14-1.682-5.14-1.682a.5.5 0 0 1 -.32-.32l-1.682-5.14-1.683 5.141a.5.5 0 0 1 -.32.32z" fill="#323c6b"/><path d="m42.74 22.377-2.157-6.594-1 3.057.849 3.845 5.193 1.848-4.885 1.157-1.157 4.536 1 3.057 2.157-6.593 6.593-2.157z" fill="#f4bb87"/><circle cx="58.121" cy="31.667" fill="#dbd8dd" r="2.375" transform="matrix(1 -.017 .017 1 -.518 .97)"/><path d="m58.118 34.542a2.875 2.875 0 0 1 -.049-5.75h.048a2.885 2.885 0 0 1 2.883 2.827 2.882 2.882 0 0 1 -2.834 2.922zm0-4.75h-.031a1.875 1.875 0 0 0 .032 3.75h.031a1.881 1.881 0 0 0 1.85-1.906 1.883 1.883 0 0 0 -1.883-1.844z" fill="#323c6b"/><circle cx="49.59" cy="12.324" fill="#dbd8dd" r="2.375"/><path d="m49.586 15.2a2.875 2.875 0 1 1 2.883-2.875 2.874 2.874 0 0 1 -2.883 2.875zm0-4.75a1.875 1.875 0 1 0 1.883 1.875 1.874 1.874 0 0 0 -1.883-1.876z" fill="#323c6b"/><circle cx="42.955" cy="45.106" fill="#dbd8dd" r="2.375"/><g fill="#323c6b"><path d="m42.951 47.98a2.875 2.875 0 1 1 2.882-2.875 2.875 2.875 0 0 1 -2.882 2.875zm0-4.75a1.875 1.875 0 1 0 1.882 1.875 1.874 1.874 0 0 0 -1.882-1.875z"/><path d="m38.075 71.5c-1.028 0-2.022-.047-3.037-.143-16.419-.852-25.716-15.113-25.808-15.257a34.707 34.707 0 0 1 23.691-53.595.5.5 0 0 1 .379.895 28.975 28.975 0 1 0 36.488 44.988.5.5 0 0 1 .795.553 34.834 34.834 0 0 1 -32.508 22.559zm-6.883-67.67a33.71 33.71 0 0 0 -21.126 51.723c.1.148 9.131 13.988 25.033 14.806h.021c.987.094 1.954.139 2.954.139a33.848 33.848 0 0 0 30.85-20.132 29.977 29.977 0 0 1 -37.732-46.536z"/><path d="m40.583 33.783a.5.5 0 0 1 -.476-.345l-2.077-6.352-6.353-2.078a.5.5 0 0 1 0-.95l6.353-2.078 2.077-6.352a.521.521 0 0 1 .951 0l2.078 6.352 6.352 2.078a.5.5 0 0 1 0 .95l-6.352 2.078-2.078 6.352a.5.5 0 0 1 -.475.345zm-7.142-9.25 5.141 1.682a.5.5 0 0 1 .32.32l1.681 5.14 1.682-5.14a.5.5 0 0 1 .32-.32l5.14-1.682-5.14-1.682a.5.5 0 0 1 -.32-.32l-1.682-5.14-1.683 5.141a.5.5 0 0 1 -.32.32z"/></g><path d="m11.149 31.264c-.035-.007-.071-.014-.107-.019a1.379 1.379 0 0 0 -1.548 1.187 6.364 6.364 0 0 0 -.108 1.383 1.379 1.379 0 0 0 2.757.06 4.37 4.37 0 0 1 .085-1.082 1.379 1.379 0 0 0 -1.079-1.529z" fill="#dbd8dd"/><path d="m11.431 37.641a1.381 1.381 0 0 0 -1.737 1.459c.919 9.682 8.676 14.434 8.935 14.7a1.379 1.379 0 0 0 1.989-1.911c-.057-.06-7.353-4.358-8.178-13.053a1.38 1.38 0 0 0 -1.009-1.195z" fill="#dbd8dd"/></g></svg>