<svg height="512" viewBox="0 0 74 74" width="512" xmlns="http://www.w3.org/2000/svg"><g id="color_line" data-name="color line"><path d="m13.4 59.9c-6.5 0-11.783-5.868-11.783-12.372a11.779 11.779 0 0 1 7.969-11.147 8.6 8.6 0 0 1 -.707-3.441 8.725 8.725 0 0 1 8.731-8.719 8.58 8.58 0 0 1 5.078 1.65 17.661 17.661 0 0 1 34.3 5.279 14.432 14.432 0 0 1 -1.8 28.751z" fill="#e1e6e9"/><path d="m17.61 24.22a8.422 8.422 0 0 1 3.79.88 17.078 17.078 0 0 0 -1.83 3.71 8.571 8.571 0 0 0 -5.08-1.65 8.661 8.661 0 0 0 -4.24 1.1 8.694 8.694 0 0 1 7.36-4.04z" fill="#d5d6db"/><path d="m69.62 45.47a14.384 14.384 0 0 1 -6.2 11.84 14.423 14.423 0 0 0 -9.55-23.22 17.667 17.667 0 0 0 -28.09-13.64 17.658 17.658 0 0 1 31.21 10.7 14.422 14.422 0 0 1 12.63 14.32z" fill="#d5d6db"/><g fill="#323c6b"><path d="m56.706 18.411a.5.5 0 0 1 -.5-.5 2.352 2.352 0 0 0 -2.337-2.36.5.5 0 0 1 0-1 3.353 3.353 0 0 1 3.333 3.365.5.5 0 0 1 -.496.495z"/><path d="m69.621 19.307a.5.5 0 0 1 -.5-.5 16.119 16.119 0 0 0 -16.021-16.182.5.5 0 0 1 -.5-.5.515.515 0 0 1 .5-.5 17.12 17.12 0 0 1 17.021 17.185.5.5 0 0 1 -.5.497z"/><path d="m63.334 19.276a.5.5 0 0 1 -.5-.5 9.825 9.825 0 0 0 -9.766-9.862.5.5 0 0 1 0-1 10.825 10.825 0 0 1 10.766 10.865.5.5 0 0 1 -.5.497z"/><path d="m56.541 63.338a.5.5 0 0 1 -.038-1 16.784 16.784 0 0 0 9.672-4.015.5.5 0 0 1 .65.76 17.779 17.779 0 0 1 -10.245 4.254z"/><path d="m54.25 63.4h-1.083a.5.5 0 0 1 0-1h1.083a.5.5 0 0 1 0 1z"/><path d="m26.313 16.28a.5.5 0 0 1 -.313-.888l.217-.185c.117-.1.235-.205.359-.3a.5.5 0 1 1 .6.8c-.105.08-.206.168-.306.255-.08.07-.16.14-.243.207a.5.5 0 0 1 -.314.111z"/><path d="m29.813 13.943a.5.5 0 0 1 -.231-.943 21.381 21.381 0 0 1 11.331-2.33.5.5 0 0 1 -.074 1 20.353 20.353 0 0 0 -10.794 2.22.5.5 0 0 1 -.232.053z"/><path d="m55.187 60.4h-41.787c-6.658 0-12.283-5.895-12.283-12.872a12.271 12.271 0 0 1 7.81-11.44 9.125 9.125 0 0 1 -.551-3.147 9.236 9.236 0 0 1 9.231-9.22 9.072 9.072 0 0 1 4.836 1.379 18.161 18.161 0 0 1 35.027 5.61 14.932 14.932 0 0 1 -2.283 29.69zm-37.577-35.679a8.235 8.235 0 0 0 -8.231 8.22 8.1 8.1 0 0 0 .666 3.242.5.5 0 0 1 -.3.672 11.27 11.27 0 0 0 -7.624 10.673c0 6.436 5.167 11.872 11.279 11.872h41.787a13.932 13.932 0 0 0 1.741-27.754.5.5 0 0 1 -.438-.479 17.161 17.161 0 0 0 -33.33-5.128.5.5 0 0 1 -.323.311.5.5 0 0 1 -.442-.073 8.083 8.083 0 0 0 -4.785-1.556z"/></g></g></svg>